<?xml version="1.0" encoding="UTF-8"?>
<!DOCTYPE svg PUBLIC "-//W3C//DTD SVG 1.1//EN" "http://www.w3.org/Graphics/SVG/1.1/DTD/svg11.dtd">
<!-- Creator: CorelDRAW 2019 (64-Bit) -->
<svg xmlns="http://www.w3.org/2000/svg" xml:space="preserve" width="15.4614mm" height="15.6948mm" version="1.1" style="shape-rendering:geometricPrecision; text-rendering:geometricPrecision; image-rendering:optimizeQuality; fill-rule:evenodd; clip-rule:evenodd"
viewBox="0 0 1402.1 1423.26"
 xmlns:xlink="http://www.w3.org/1999/xlink"
 xmlns:xodm="http://www.corel.com/coreldraw/odm/2003">
 <defs>
  <style type="text/css">
   <![CDATA[
    .fil1 {fill:#003399}
    .fil0 {fill:#CCCCFF}
   ]]>
  </style>
 </defs>
 <g id="Warstwa_x0020_1">
  <metadata id="CorelCorpID_0Corel-Layer"/>
  <path class="fil0" d="M701.05 1412.67c-387.17,0 -701.04,-313.87 -701.04,-701.04 0,-387.17 313.87,-701.04 701.04,-701.04 387.18,0 701.05,313.87 701.05,701.04 0,387.17 -313.87,701.04 -701.05,701.04z"/>
  <path class="fil1" d="M701.05 0c384.29,0 695.83,318.61 695.83,711.63 0,143.33 -41.46,276.72 -112.75,388.42l-344.73 0 0 -958.65 -144.11 0 0 1086.06 385.1 0c-124.78,121.34 -293.55,195.8 -479.34,195.8 -188.67,0 -359.76,-76.83 -485.09,-201.52 25.35,-3.03 49.25,-7.26 71.7,-12.74 50.56,-12.39 93.79,-30.59 129.43,-54.61 35.91,-23.76 68.77,-56.62 99.1,-98.34 30.1,-41.71 54.87,-94.55 74.08,-158.26 19.21,-63.71 28.83,-136.77 28.83,-219.18 0,-96.82 -14.17,-183.03 -42.74,-258.37 -28.31,-75.34 -71.03,-137.02 -128.42,-185.56 -43.98,-37.42 -97.08,-63.46 -159.27,-77.87 -5.89,-1.37 -12.11,-2.65 -18.68,-3.83 118.52,-95.79 268.24,-152.99 431.06,-152.99zm-583.21 1099.85c-71.21,-111.64 -112.62,-244.98 -112.62,-388.22 0,-166.7 56.06,-320.02 149.95,-441.31 54.06,2.85 95.25,9.73 123.65,20.75 53.33,20.72 98.59,61.68 135.74,122.86 37.17,61.18 55.88,148.65 55.88,262.41 0,82.17 -9.6,151.94 -28.57,209.58 -18.96,57.64 -45.51,103.65 -79.37,137.78 -24.29,24.28 -56.64,42.98 -97.33,56.38 -36.64,12.06 -85.73,18.59 -147.32,19.78z"/>
 </g>
</svg>
