<?xml version="1.0" encoding="UTF-8"?>
<!DOCTYPE svg PUBLIC "-//W3C//DTD SVG 1.1//EN" "http://www.w3.org/Graphics/SVG/1.1/DTD/svg11.dtd">
<!-- Creator: CorelDRAW 2019 (64-Bit) -->
<svg xmlns="http://www.w3.org/2000/svg" xml:space="preserve" width="132.224mm" height="20.4936mm" version="1.1" style="shape-rendering:geometricPrecision; text-rendering:geometricPrecision; image-rendering:optimizeQuality; fill-rule:evenodd; clip-rule:evenodd"
viewBox="0 0 13526.5 2096.5"
 xmlns:xlink="http://www.w3.org/1999/xlink"
 xmlns:xodm="http://www.corel.com/coreldraw/odm/2003">
 <defs>
  <style type="text/css">
   <![CDATA[
    .fil0 {fill:white;fill-rule:nonzero}
   ]]>
  </style>
 </defs>
 <g id="Warstwa_x0020_1">
  <metadata id="CorelCorpID_0Corel-Layer"/>
  <path class="fil0" d="M1821.31 1048.25c0,150.35 -25.05,288.41 -75.18,414.19 -50.12,125.77 -120.57,234.04 -211.35,324.82 -90.78,90.78 -200,161.24 -327.66,211.35 -127.67,50.12 -269.04,75.18 -424.13,75.18l-782.99 0 0 -2051.11 782.99 0c155.09,0 296.46,25.06 424.13,75.65 127.66,50.6 236.88,121.04 327.66,211.35 90.78,90.31 161.24,198.58 211.35,324.36 50.13,125.77 75.18,263.83 75.18,414.19zm-390.08 0c0,-112.54 -15.13,-213.71 -45.39,-303.08 -30.26,-89.36 -73.29,-165.01 -129.07,-226.95 -55.79,-61.94 -123.41,-109.23 -203.32,-142.32 -79.91,-33.09 -170.22,-49.65 -270.45,-49.65l-398.59 0 0 1444 398.59 0c100.23,0 190.54,-16.54 270.45,-49.65 79.91,-33.09 147.53,-80.85 203.32,-142.79 55.78,-61.94 98.81,-137.59 129.07,-226.95 30.26,-89.37 45.39,-190.07 45.39,-302.6zm1070.95 710.65l821.3 0 0 314.9 -1202.86 0 0 -2051.11 381.57 0 0 1736.21zm2906.44 -710.65c0,150.35 -25.05,288.41 -75.18,414.19 -50.12,125.77 -120.57,234.04 -211.35,324.82 -90.78,90.78 -200,161.24 -327.66,211.35 -127.67,50.12 -269.04,75.18 -424.13,75.18l-782.99 0 0 -2051.11 782.99 0c155.09,0 296.46,25.06 424.13,75.65 127.66,50.6 236.88,121.04 327.66,211.35 90.78,90.31 161.24,198.58 211.35,324.36 50.13,125.77 75.18,263.83 75.18,414.19zm-390.08 0c0,-112.54 -15.13,-213.71 -45.39,-303.08 -30.26,-89.36 -73.29,-165.01 -129.07,-226.95 -55.79,-61.94 -123.41,-109.23 -203.32,-142.32 -79.91,-33.09 -170.22,-49.65 -270.45,-49.65l-398.59 0 0 1444 398.59 0c100.23,0 190.54,-16.54 270.45,-49.65 79.91,-33.09 147.53,-80.85 203.32,-142.79 55.78,-61.94 98.81,-137.59 129.07,-226.95 30.26,-89.37 45.39,-190.07 45.39,-302.6zm1983.02 -1025.56l0 303.55 -909.24 0 0 567.39 716.33 0 0 295.04 -716.33 0 0 578.73 909.24 0 0 306.39 -1293.65 0 0 -2051.11 1293.65 0zm1429.82 374.48c-10.4,20.8 -22.23,35.46 -35.94,43.97 -13.71,8.51 -30.26,12.77 -49.18,12.77 -18.92,0 -40.19,-7.56 -63.82,-22.22 -23.64,-14.66 -51.54,-30.73 -83.69,-48.71 -32.15,-17.96 -69.5,-34.52 -112.53,-49.18 -43.03,-14.65 -94.1,-21.75 -152.72,-21.75 -52.96,0 -98.82,6.15 -138.06,18.92 -39.24,12.77 -72.35,30.73 -99.29,53.43 -26.96,22.69 -47.28,49.65 -60.52,81.33 -13.24,31.67 -19.87,66.67 -19.87,104.49 0,47.75 13.72,87.95 40.66,120.1 26.96,32.15 62.41,59.57 106.86,82.27 44.44,22.69 95.04,43.03 151.77,60.99 56.75,17.96 114.89,37.35 174,57.69 59.1,19.86 116.79,43.5 173.52,70.45 56.75,26.95 107.33,60.99 151.78,102.13 44.44,41.13 80.38,91.72 107.32,150.83 26.96,59.57 40.19,131.92 40.19,217.02 0,92.67 -15.6,179.2 -47.28,260.06 -31.68,80.85 -78.01,151.3 -139.01,211.35 -61,60.05 -135.7,107.33 -223.65,141.85 -87.95,34.52 -188.65,51.54 -302.13,51.54 -65.25,0 -129.55,-6.63 -192.91,-19.39 -63.36,-12.77 -123.89,-30.74 -182.04,-54.38 -58.16,-23.64 -112.53,-52.01 -163.12,-85.1 -50.6,-33.09 -95.99,-69.98 -135.7,-110.64l110.64 -182.98c10.4,-13.24 23.17,-24.11 37.82,-33.1 14.66,-8.98 30.74,-13.71 48.71,-13.71 23.64,0 49.18,9.93 76.6,29.32 27.42,19.39 60.04,40.66 97.4,64.3 37.35,23.64 81.32,45.4 131.92,64.79 50.59,19.38 111.11,28.84 182.03,28.84 108.76,0 192.92,-26 252.49,-77.54 59.58,-51.54 89.37,-125.3 89.37,-221.76 0,-53.9 -13.24,-97.87 -40.19,-131.92 -26.95,-34.05 -62.88,-62.88 -107.33,-86.05 -44.44,-23.17 -95.04,-42.56 -151.77,-58.63 -56.74,-16.08 -114.42,-33.57 -173.05,-52.48 -58.63,-18.92 -116.32,-41.62 -173.05,-68.09 -56.75,-26.48 -107.33,-60.99 -151.78,-103.55 -44.44,-42.56 -79.91,-95.98 -106.85,-159.81 -26.96,-63.84 -40.66,-142.32 -40.66,-235.93 0,-74.71 15.13,-147.53 44.92,-218.45 29.78,-70.92 73.29,-133.81 130.49,-188.65 57.22,-54.85 127.19,-98.82 210.41,-131.92 83.21,-33.1 178.25,-49.65 285.11,-49.65 121.04,0 232.63,18.92 334.76,57.21 102.13,37.83 189.13,91.26 261,159.81l-93.61 180.15zm852.49 1676.63l-382.98 0 0 -2051.11 382.98 0 0 2051.11zm1402.87 -280.85c86.04,0 161.22,-8.04 225.06,-23.64 63.82,-15.6 124.36,-36.88 182.03,-64.31l0 -374.48 -256.74 0c-24.58,0 -43.97,-7.09 -58.16,-20.8 -14.18,-13.72 -21.28,-30.26 -21.28,-50.12l0 -215.61 682.29 0 0 831.22c-52.01,37.82 -105.91,70.45 -162.18,98.35 -56.28,27.89 -116.32,51.06 -180.15,69.03 -63.84,17.96 -132.39,31.2 -205.2,40.18 -72.82,8.98 -151.3,13.72 -235.46,13.72 -149.41,0 -287,-26.01 -412.78,-78.02 -125.77,-52.01 -234.51,-124.35 -326.24,-217.02 -91.72,-92.67 -163.12,-203.31 -214.66,-331.92 -51.54,-128.61 -77.54,-269.04 -77.54,-421.28 0,-154.15 25.05,-295.51 75.18,-424.13 50.12,-128.61 121.51,-239.25 213.71,-331.92 92.19,-92.67 203.78,-164.54 335.23,-215.61 131.45,-51.06 278.96,-76.59 442.56,-76.59 167.38,0 312.54,25.05 435,74.7 122.46,50.13 226.01,114.9 311.11,194.81l-110.64 172.58c-21.75,34.99 -50.6,52.48 -86.53,52.48 -22.7,0 -45.87,-7.57 -69.51,-22.7 -30.26,-17.96 -60.99,-35.93 -92.67,-53.9 -31.67,-17.96 -66.66,-33.56 -104.96,-46.33 -38.3,-13.24 -81.33,-24.11 -129.08,-32.62 -47.75,-8.51 -103.08,-12.77 -165.49,-12.77 -101.18,0 -192.44,17.02 -274.24,51.07 -81.8,34.04 -151.77,82.74 -209.46,146.09 -57.69,62.89 -102.13,139.02 -133.34,227.9 -31.2,88.89 -46.8,188.18 -46.8,297.41 0,118.21 16.54,223.65 49.65,315.37 33.09,92.2 79.43,169.75 139.01,233.1 59.58,63.35 130.5,112.06 212.77,145.63 82.27,33.56 172.1,50.12 269.51,50.12zm1309.25 -1770.25c17.02,0 31.2,0.47 42.55,1.89 11.36,1.42 21.76,4.26 30.74,8.51 8.98,4.26 17.49,10.4 26,18.44 8.51,8.03 17.96,18.91 28.37,32.15l1076.62 1371.65c-3.79,-33.09 -6.15,-65.72 -7.57,-97.4 -1.41,-31.67 -2.36,-60.99 -2.36,-88.42l0 -1246.83 336.18 0 0 2051.11 -197.16 0c-30.26,0 -55.32,-4.73 -75.18,-14.19 -19.86,-9.45 -39.24,-26.48 -58.16,-51.06l-1072.36 -1365.98c2.83,30.26 5.2,60.04 6.62,89.83 1.42,29.79 1.89,57.22 1.89,81.8l0 1259.6 -336.18 0 0 -2051.11 200.01 0z"/>
 </g>
</svg>
